HIERARCHY
ROOT Hips
{
  OFFSET 0.0 0.0 0.0
  CHANNELS 6 XPOSITION YPOSITION ZPOSITION ZROTATION XROTATION YROTATION 
  JOINT LeftUpLeg
  {
    OFFSET 0.089458 -0.0866707 0.00101652
    CHANNELS 3 ZROTATION XROTATION YROTATION 
    JOINT LeftLeg
    {
      OFFSET 0.0 -0.444227 0.013727
      CHANNELS 3 ZROTATION XROTATION YROTATION 
      JOINT LeftFoot
      {
        OFFSET -0.00253549 -0.420924 -0.0146059
        CHANNELS 3 ZROTATION XROTATION YROTATION 
        End Site
        {
          OFFSET -0.0004 -0.0441509 0.084991
        }
      }
    }
  }
  JOINT Spine
  {
    OFFSET 0.0 0.118905 0.0
    CHANNELS 3 ZROTATION XROTATION YROTATION 
    JOINT Spine1
    {
      OFFSET 0.0 0.256574 0.00127663
      CHANNELS 3 ZROTATION XROTATION YROTATION 
      End Site
      {
        OFFSET -0.0029 0.2150836 0.02525291
      }
      JOINT RightArm
      {
        OFFSET -0.162727 -0.05365632 0.00102123
        CHANNELS 3 ZROTATION XROTATION YROTATION 
        JOINT RightForeArm
        {
          OFFSET -0.26364 0.00099144 -0.0142434
          CHANNELS 3 ZROTATION XROTATION YROTATION 
          End Site
          {
            OFFSET -0.220324 0.00085362 0.0102216
          }
        }
      }
      JOINT LeftArm
      {
        OFFSET 0.162727 -0.0536563199 0.00102123
        CHANNELS 3 ZROTATION XROTATION YROTATION 
        JOINT LeftForeArm
        {
          OFFSET 0.262597 0.00099144 -0.0142434
          CHANNELS 3 ZROTATION XROTATION YROTATION 
          End Site
          {
            OFFSET 0.220902 0.00085362 0.0102216
          }
        }
      }
    }
  }
  JOINT RightUpLeg
  {
    OFFSET -0.089458 -0.0866707 0.00101652
    CHANNELS 3 ZROTATION XROTATION YROTATION 
    JOINT RightLeg
    {
      OFFSET 0.0 -0.444227 0.013727
      CHANNELS 3 ZROTATION XROTATION YROTATION 
      JOINT RightFoot
      {
        OFFSET 0.00253549 -0.420924 -0.0146059
        CHANNELS 3 ZROTATION XROTATION YROTATION 
        End Site
        {
          OFFSET 0.0004 -0.0441509 0.084991
        }
      }
    }
  }
}
MOTION
Frames: 13
Frame Time: 0.033333
1.95161 1.02945894003 0.0705537 -5.23423009307 -1.25837996542 -89.5909971166 -1.97045002484 3.52450994664 1.80099986172 -0.114395009767 7.63792051107 17.1684010638 -1.12047001506 -9.82809067787 0.0140499992775 3.75321968477 6.28270980756 1.01725998701 -5.6167398965 0.287514998843 2.28559986234 77.3848206924 -8.712507343 3.05645650617 6.3034001581 29.0845983917 13.5365999443 -73.653099028 -1.19210599957 4.7875246223 -1.83635996449 28.5739990626 -19.6618008939 -2.92760989668 6.32945989111 -6.52278967623 0.62454401333 9.22168940789 -14.8511996237 4.06863013668 -13.626699531 0.00874210019145 
1.95144 1.02933894003 0.0702741 -5.20995986963 -1.26692997488 -89.3801969882 -1.97824988743 3.52855000354 1.71287003758 -0.0341670007967 7.56876996836 17.0210004589 -1.13169009488 -9.83835986729 0.0140503994839 3.82556974422 6.20732970545 1.05394994896 -5.64435990085 0.289193998079 2.33387008986 77.3743636728 -8.54498670832 3.29327794772 6.20251015321 29.1045015629 13.6732003126 -73.4838810913 -2.94868850079 4.93263796763 -2.28111008018 30.1688977526 -18.6061012426 -2.89252001326 6.34028958293 -6.52379969045 0.646607978949 9.2335397861 -15.0601999972 4.06863995508 -13.6651995998 0.00874353009556 
1.95127 1.02923894003 0.0697782 -5.18120946898 -1.29518998929 -89.0909999486 -2.00222000943 3.49055003265 1.59686002158 0.0662641941407 7.559820713 16.8366007192 -1.17357996522 -9.83528969726 0.0140502994323 3.86944047614 5.93691995489 1.1675799642 -5.61133038668 0.5990820286 2.45749992894 77.2851067607 -8.24300440832 3.8639344899 6.00807003547 28.9603982318 13.9730994049 -73.2202084686 -5.62024079534 5.23273940429 -3.00223995864 32.6189002683 -17.0396998093 -2.869359909 6.35512005805 -6.54569001985 0.689579046895 9.25233049028 -15.3307984317 4.0649298817 -13.7058998433 0.00874504004094 
1.95111 1.02917894003 0.0692797 -5.17582044973 -1.3649900403 -88.886797783 -2.0620900326 3.46549006858 1.49719998435 0.13465799324 7.58494983273 16.736398429 -1.24093000603 -9.81478973824 0.0140494006354 3.99748987449 5.73921031096 1.30824995131 -5.8152798353 0.867515986862 2.6541099124 77.1953922259 -7.5854108705 4.30836508079 5.76372983631 28.2580993983 14.5079006556 -72.9138881447 -7.43641029376 5.67247424013 -3.56998001005 34.3867000746 -15.8940004628 -2.90984991073 6.35546967836 -6.61235010483 0.735506999782 9.33296001965 -15.4673988001 4.05034998914 -13.7847996273 0.0087479807242 
1.95086 1.02908894003 0.0687963 -5.19930989717 -1.45727998325 -88.7210017711 -2.13397990805 3.50323988379 1.42003997762 0.173586002744 7.56603020873 16.6425004034 -1.28487000034 -9.79456981697 0.0140485001711 4.27018987286 5.86555002759 1.41389995772 -6.33911991303 0.660717975835 2.86679986872 77.1718690544 -6.5517727302 4.3378911348 5.50671963624 27.1038998815 15.2217988579 -72.54326842 -8.44588663988 6.24327656416 -3.93378000435 35.4404992257 -15.1899001669 -2.99232978104 6.3610597613 -6.72516007048 0.79331601337 9.47374985524 -15.5143000015 4.03925007797 -13.9158999857 0.00875291993814 
1.95067 1.02899894003 0.0681964 -5.23292979581 -1.50027997278 -88.5016024345 -2.12975991836 3.5268599586 1.3947599534 0.204413994862 7.59019029538 16.4299005202 -1.3080600934 -9.80573034608 0.014049000429 4.48649982944 6.12356042348 1.47284000795 -6.72035972816 0.248947001673 2.99434980949 77.1494796943 -5.70368308199 4.27869815413 5.30116039741 26.2673997836 15.7792993885 -72.2270579822 -9.24951218347 6.89942850518 -4.155309933 36.08279997 -14.7432006725 -3.00652013938 6.41560010249 -6.80783011888 0.871301992735 9.54301992626 -15.6599008516 4.0263098577 -14.0003006333 0.00875611992179 
1.95066 1.02896894003 0.0674339 -5.24405958906 -1.44970999921 -88.2449990576 -2.01509000682 3.43600990491 1.42408003452 0.250789018315 7.76381028898 16.1309994892 -1.36694998442 -9.8609302274 0.0140513999999 4.50850968716 6.16714983699 1.50935003711 -6.66814037063 0.163736002847 3.01717993024 77.0698396886 -5.51576494113 4.53078976423 5.18573020044 26.2581004811 15.9332996637 -72.1389485419 -9.63741228681 7.54628327807 -4.13598988916 36.061100459 -14.7271002091 -2.87492992827 6.51274972503 -6.76334979257 0.930096954802 9.44084968778 -15.9843006863 3.97509026911 -13.9763002023 0.008755210286 
1.95077 1.02894894003 0.0666727 -5.22865025541 -1.37779002824 -88.0299983629 -1.89668995822 3.28709982817 1.43903996307 0.319311984028 7.97885025726 15.904300388 -1.44807000676 -9.92192979311 0.014053999674 4.51181976758 6.04307005921 1.53839008047 -6.58908989561 0.335365996827 3.03358006821 77.0355657994 -5.73088473725 4.94011873232 5.13376014482 26.6542992642 15.8610994415 -72.1876887718 -9.47682087905 8.07208490076 -3.86884966478 35.5198967597 -15.1407006068 -2.69314999304 6.58560991423 -6.6347501371 0.932661050505 9.28923058727 -16.3322988245 3.91483988978 -13.9402999828 0.00875384958425 
1.95084 1.02886894003 0.0661014 -5.2252099745 -1.38869004966 -87.8687990683 -1.89322000867 3.22867993954 1.38101003555 0.388351989726 8.04722984237 15.8099003435 -1.4795899424 -9.9334600062 0.0140544999319 4.68192007933 6.05367990431 1.56833000125 -6.91373988592 0.333381986956 3.13195997858 77.1111555029 -5.7926731898 5.1290340808 5.09013017706 26.7424001668 15.8871002642 -72.1263331825 -9.3399498645 8.39337529177 -3.59486985972 35.1887965095 -15.5217995492 -2.63414014682 6.59387999266 -6.59350988178 0.924838989801 9.29903959269 -16.5151002999 3.91301025286 -13.9900997458 0.00875574055947 
1.9509 1.02878894003 0.0657109 -5.25365002843 -1.47580004118 -87.7136991327 -1.97234006625 3.27548978724 1.28766002589 0.431791005672 7.98392081895 15.745701688 -1.4784099205 -9.89096939937 0.0140526006191 4.89613999803 6.21437974133 1.61625999998 -7.38388955414 0.166791992232 3.27889015423 77.1892382255 -5.62287212572 5.09667904781 5.03279031209 26.4787992611 16.0534000025 -71.9950227957 -9.41179150173 8.48761738816 -3.47459022843 35.1184011649 -15.6628002669 -2.71358015606 6.5745800125 -6.69794987749 0.969527957045 9.45762036352 -16.5632992373 3.93213008678 -14.0729004216 0.00875889968872 
1.951 1.02877894003 0.0653521 -5.27675015509 -1.5566800464 -87.5426028939 -2.03003979681 3.30922985452 1.22230994985 0.453008027833 7.93503971638 15.6297985004 -1.51837004896 -9.83654047565 0.0140503010998 4.94411994251 6.26851027116 1.68737005992 -7.5349306499 0.180242995926 3.39014006199 77.1795598474 -5.52352232848 5.07310464989 4.94117015456 26.3541004974 16.2103014006 -72.0352594401 -9.18934846217 8.41227015633 -3.38623020557 34.684701228 -15.8704994894 -2.79166010389 6.57635031215 -6.81100018043 1.03537002015 9.56058973412 -16.6404001202 3.88378003142 -14.1195002409 0.00876068977858 
1.95106 1.02875894003 0.0649543 -5.27116989054 -1.61488990672 -87.3702020891 -2.0677398797 3.29983002012 1.16353990731 0.4849339862 7.91188025245 15.5143990393 -1.56530999042 -9.79035985912 0.0140484001195 4.8444000344 6.15794999907 1.75052999312 -7.42354990133 0.394068004288 3.44345993374 77.1454567129 -5.5372936974 5.08518554699 4.79433987043 26.5209995849 16.3327000981 -72.2102352262 -8.69525428515 8.24173740823 -3.21343004811 33.9588980061 -16.2595009607 -2.81000001559 6.59625988669 -6.84426021348 1.05771999994 9.55619023852 -16.7772002715 3.81905032865 -14.1715001786 0.0087626899768 
1.95103 1.02868894003 0.0645709 -5.28390008249 -1.68992006836 -87.1959024917 -2.14560979922 3.33864982716 1.06173006803 0.550859985925 7.83833021415 15.4482998836 -1.54889992733 -9.73913002525 0.0140462006518 4.72521024518 6.07894989669 1.76606995414 -7.34724985811 0.551996998979 3.45471010908 77.1599845253 -5.44001857013 5.04347870437 4.64751983158 26.643999339 16.4768000141 -72.2909475717 -8.59234297116 7.97515939379 -3.05291014389 33.6424997381 -16.5158003943 -2.8415700037 6.63150024772 -6.88660994765 1.06250999026 9.57545990972 -16.8886979871 3.84060982077 -14.2437994385 0.00876548975405 
